<?xml version="1.0" standalone="no"?>
<!DOCTYPE svg PUBLIC "-//W3C//DTD SVG 20010904//EN"
 "http://www.w3.org/TR/2001/REC-SVG-20010904/DTD/svg10.dtd">
<svg version="1.0" xmlns="http://www.w3.org/2000/svg"
 width="500.000000pt" height="500.000000pt" viewBox="0 0 500.000000 500.000000"
 preserveAspectRatio="xMidYMid meet">
<metadata>
Created by potrace 1.11, written by Peter Selinger 2001-2013
</metadata>
<g transform="translate(0.000000,500.000000) scale(0.100000,-0.100000)"
fill="#000000" stroke="none">
<path d="M0 2500 l0 -2500 2500 0 2500 0 0 2500 0 2500 -2500 0 -2500 0 0
-2500z m1770 930 l0 -730 125 0 125 0 0 120 0 120 120 0 120 0 0 125 0 125
120 0 120 0 0 120 0 120 125 0 125 0 0 120 0 120 120 0 120 0 0 125 0 125 125
0 125 0 0 120 0 120 245 0 245 0 -2 -242 -3 -243 -122 -3 -123 -3 0 -119 0
-120 -120 0 -120 0 0 -120 0 -119 -122 -3 -123 -3 -3 -122 -3 -123 -119 0
-120 0 0 -120 0 -120 -120 0 -120 0 0 -245 0 -245 120 0 120 0 0 -120 0 -120
120 0 120 0 0 -125 0 -125 125 0 125 0 0 -120 0 -120 120 0 120 0 0 -125 0
-125 125 0 125 0 -2 -243 -3 -242 -242 -3 -243 -2 0 125 0 125 -125 0 -125 0
0 120 0 120 -120 0 -120 0 0 125 0 125 -125 0 -125 0 0 120 0 120 -120 0 -120
0 0 120 0 120 -120 0 -120 0 0 125 0 125 -125 0 -125 0 0 -735 0 -735 -242 2
-243 3 -3 1708 -2 1707 245 0 245 0 0 -730z"/>
</g>
</svg>
